<?xml version="1.0" encoding="UTF-8"?>
<!-- Created with Inkscape (http://www.inkscape.org/) -->
<svg width="210mm" height="297mm" version="1.1" viewBox="0 0 100 100" xmlns="http://www.w3.org/2000/svg" xmlns:cc="http://creativecommons.org/ns#" xmlns:dc="http://purl.org/dc/elements/1.1/" xmlns:rdf="http://www.w3.org/1999/02/22-rdf-syntax-ns#">
 <metadata>
  <rdf:RDF>
   <cc:Work rdf:about="">
    <dc:format>image/svg+xml</dc:format>
    <dc:type rdf:resource="http://purl.org/dc/dcmitype/StillImage"/>
    <dc:title/>
   </cc:Work>
  </rdf:RDF>
 </metadata>
 <g transform="translate(-19.514 -20.919)" stroke="#000">
  <g fill="none" stroke-width=".26458px">
   <path d="m19.655 21.077v40.821l40.818-40.818"/>
   <path d="m78.843 121.09 40.814-40.822"/>
   <path d="m19.644 80.265 40.829 40.834"/>
   <path d="m78.843 21.054 40.821 40.845"/>
   <path d="m110.21 89.726-59.195-59.195m-21.886 21.895 59.186 59.186"/>
   <path d="m29.073 89.72 59.248-59.181"/>
   <path d="m51.011 111.63 59.207-59.206"/>
   <path d="m19.655 21.077 40.818 0.0033"/>
   <path d="m78.843 21.054 40.811 0.02362"/>
   <path d="m119.66 61.899-0.0101-40.821"/>
   <path d="m119.66 80.265-3e-3 40.812"/>
   <path d="m78.843 121.09 40.811-0.0102"/>
   <path d="m60.473 121.1-40.818-0.022"/>
   <path d="m19.644 80.265 0.01045 40.812"/>
  </g>
  <g stroke-width=".71541">
   <path transform="scale(.26458)" d="m145.91 232.77-34.462-34.468 20.001-57.853 61.429-23.567 68.925 68.925-1.4269 97.857-80.004-16.427z"/>
   <path transform="scale(.26458)" d="m75.014 155.8v-75h151.07l-74.997 75c-41.249 41.25-75.239 75-75.534 75s-0.53699-33.75-0.53699-75z"/>
   <path transform="scale(.26458)" d="m75.014 381.52c0-41.25 0.24165-75 0.53699-75s34.286 33.75 75.534 75l74.997 75h-151.07z"/>
   <path transform="scale(.26458)" d="m113.4 412.41-1.9622-73.395 68.934-68.923 79.995 13.571 1.4235 67.857-34.28 34.286c-18.854 18.857-34.443 34.286-34.643 34.286-0.19926 0-78.625 23.837-79.467-7.6811z"/>
   <path transform="scale(.26458)" d="m189.48 342.41-7.6754-73.752 7.8571-80 73.571-1.4286 62.935 22.533 18.488 58.899-1.9643 67.321-79.464 14.107z"/>
   <path transform="scale(.26458)" d="m298.94 385.8-34.28-34.286 17.852-63.571 63.566-17.857 68.934 68.923-13.391 61.253c-6.7338 30.802-67.839 19.824-68.039 19.824-0.19925 0-15.788-15.429-34.643-34.286z"/>
   <path transform="scale(.26458)" d="m301.44 455.98c0-0.70047 148.77-149.46 149.47-149.46 0.29394 0 0.53444 33.75 0.53444 75v75h-75c-41.25 0-75-0.24165-75-0.53699z"/>
   <path transform="scale(.26458)" d="m375.4 155.83c-41.233-41.234-74.765-75.174-74.517-75.422 0.24797-0.24797 34.225-0.21386 75.505 0.07579l75.054 0.52664v74.895c0 41.192-0.24165 74.895-0.537 74.895-0.29534 0-34.273-33.737-75.505-74.971z"/>
   <path transform="scale(.26458)" d="m305.37 226.52-40.71-40.715 68.925-68.925 65.969 11.547 15.461 69.883-68.936 68.925z"/>
  </g>
 </g>
</svg>
